<?xml version="1.0" standalone="no"?>
<!DOCTYPE svg PUBLIC "-//W3C//DTD SVG 20010904//EN"
 "http://www.w3.org/TR/2001/REC-SVG-20010904/DTD/svg10.dtd">
<svg version="1.0" xmlns="http://www.w3.org/2000/svg"
 width="700.000000pt" height="700.000000pt" viewBox="0 0 700.000000 700.000000"
 preserveAspectRatio="xMidYMid meet">
<metadata>
Created by potrace 1.14, written by Peter Selinger 2001-2017
</metadata>
<g transform="translate(0.000000,700.000000) scale(0.100000,-0.100000)"
fill="#000000" stroke="none">
<path d="M3265 6274 c-682 -71 -1266 -343 -1731 -808 -431 -431 -693 -957
-791 -1586 -25 -163 -25 -597 0 -760 98 -629 362 -1157 791 -1586 434 -432
958 -694 1586 -791 163 -25 597 -25 760 0 628 97 1154 360 1586 791 431 432
694 958 791 1586 25 163 25 597 0 760 -97 628 -360 1155 -791 1586 -429 429
-953 691 -1576 789 -101 16 -528 29 -625 19z m1415 -1549 c299 -82 530 -317
611 -620 30 -113 30 -307 0 -420 -30 -113 -97 -247 -169 -335 -65 -80 -597
-613 -672 -672 -266 -211 -642 -245 -943 -85 l-77 41 -128 -126 c-131 -129
-198 -180 -309 -230 -214 -97 -491 -94 -708 6 -289 134 -477 409 -501 734 -12
166 44 375 140 522 62 95 679 716 775 780 272 182 608 198 901 44 l70 -37 134
131 c153 149 239 206 386 253 151 49 342 54 490 14z"/>
<path d="M4360 4409 c-30 -5 -91 -27 -135 -48 -67 -34 -99 -59 -197 -158
l-118 -118 45 -90 c68 -135 88 -222 88 -385 0 -154 -19 -243 -78 -367 -49
-104 -86 -155 -193 -264 -51 -53 -90 -99 -85 -102 4 -3 39 -14 77 -26 82 -25
196 -28 281 -6 128 34 159 58 493 390 172 170 329 333 348 361 179 260 84 625
-200 764 -112 55 -204 68 -326 49z"/>
<path d="M3056 4115 c-128 -33 -159 -57 -497 -395 -174 -173 -333 -340 -353
-370 -60 -92 -79 -160 -80 -280 0 -85 4 -118 23 -170 82 -237 321 -386 564
-351 135 19 210 62 355 205 l124 122 -35 64 c-113 207 -135 464 -58 687 46
133 104 225 219 344 l103 107 -58 22 c-75 29 -223 36 -307 15z"/>
<path d="M3564 3738 c-94 -98 -132 -161 -159 -264 -25 -96 -17 -223 20 -311
l16 -38 90 92 c66 68 98 111 123 163 41 86 61 190 52 277 -6 62 -30 150 -45
166 -4 4 -48 -34 -97 -85z"/>
</g>
</svg>
